<mxfile host="app.diagrams.net" modified="2020-10-25T19:32:28.852Z" agent="5.0 (Windows NT 10.0; Win64; x64) AppleWebKit/537.36 (KHTML, like Gecko) Chrome/86.0.4240.111 Safari/537.36" etag="cUzGd8M6fYN84LMWFeMs" version="13.8.2" type="github">
  <diagram name="Page-1" id="822b0af5-4adb-64df-f703-e8dfc1f81529">
    <mxGraphModel dx="1422" dy="865" grid="1" gridSize="10" guides="1" tooltips="1" connect="1" arrows="1" fold="1" page="1" pageScale="1" pageWidth="1100" pageHeight="850" background="#ffffff" math="0" shadow="0">
      <root>
        <mxCell id="0" />
        <mxCell id="1" parent="0" />
        <mxCell id="In-exWz_-cnZ1oBUNG91-36" value="" style="group" vertex="1" connectable="0" parent="1">
          <mxGeometry x="440" y="390" width="320" height="350" as="geometry" />
        </mxCell>
        <mxCell id="In-exWz_-cnZ1oBUNG91-37" value="" style="group" vertex="1" connectable="0" parent="In-exWz_-cnZ1oBUNG91-36">
          <mxGeometry width="320" height="350" as="geometry" />
        </mxCell>
        <mxCell id="In-exWz_-cnZ1oBUNG91-35" value="Jetson NX" style="fillColor=#EFF0F3;strokeColor=none;dashed=0;verticalAlign=top;fontStyle=1;fontColor=#232F3D;fontSize=16;" vertex="1" parent="In-exWz_-cnZ1oBUNG91-37">
          <mxGeometry width="320" height="350" as="geometry" />
        </mxCell>
        <mxCell id="In-exWz_-cnZ1oBUNG91-43" value="&lt;font style=&quot;font-size: 12px&quot;&gt;trained models&lt;/font&gt;" style="edgeStyle=orthogonalEdgeStyle;rounded=0;orthogonalLoop=1;jettySize=auto;html=1;fontSize=16;" edge="1" parent="In-exWz_-cnZ1oBUNG91-37" source="In-exWz_-cnZ1oBUNG91-33" target="In-exWz_-cnZ1oBUNG91-38">
          <mxGeometry relative="1" as="geometry">
            <mxPoint x="119.30500000000006" y="256.5" as="targetPoint" />
          </mxGeometry>
        </mxCell>
        <mxCell id="In-exWz_-cnZ1oBUNG91-33" value="yolov5 docker" style="outlineConnect=0;fontColor=#232F3E;gradientColor=none;fillColor=#D05C17;strokeColor=none;dashed=0;verticalLabelPosition=bottom;verticalAlign=top;align=center;html=1;fontSize=12;fontStyle=0;aspect=fixed;pointerEvents=1;shape=mxgraph.aws4.container_2;" vertex="1" parent="In-exWz_-cnZ1oBUNG91-37">
          <mxGeometry x="216" y="230.43" width="81.39" height="52.17" as="geometry" />
        </mxCell>
        <mxCell id="In-exWz_-cnZ1oBUNG91-39" value="ffmpeg docker" style="outlineConnect=0;fontColor=#232F3E;gradientColor=none;fillColor=#D05C17;strokeColor=none;dashed=0;verticalLabelPosition=bottom;verticalAlign=top;align=center;html=1;fontSize=12;fontStyle=0;aspect=fixed;pointerEvents=1;shape=mxgraph.aws4.container_1;" vertex="1" parent="In-exWz_-cnZ1oBUNG91-37">
          <mxGeometry x="50" y="100" width="78" height="50" as="geometry" />
        </mxCell>
        <mxCell id="In-exWz_-cnZ1oBUNG91-38" value="" style="outlineConnect=0;fontColor=#232F3E;gradientColor=none;fillColor=#D05C17;strokeColor=none;dashed=0;verticalLabelPosition=bottom;verticalAlign=top;align=center;html=1;fontSize=12;fontStyle=0;aspect=fixed;pointerEvents=1;shape=mxgraph.aws4.container_3;" vertex="1" parent="In-exWz_-cnZ1oBUNG91-37">
          <mxGeometry x="19" y="232.60000000000002" width="78" height="50" as="geometry" />
        </mxCell>
        <mxCell id="In-exWz_-cnZ1oBUNG91-7" value="" style="edgeStyle=orthogonalEdgeStyle;rounded=0;orthogonalLoop=1;jettySize=auto;html=1;" edge="1" parent="1" source="In-exWz_-cnZ1oBUNG91-39" target="In-exWz_-cnZ1oBUNG91-18">
          <mxGeometry relative="1" as="geometry">
            <mxPoint x="590.2608695652173" y="516.0999999999999" as="sourcePoint" />
            <mxPoint x="680" y="230" as="targetPoint" />
            <Array as="points">
              <mxPoint x="879" y="516" />
            </Array>
          </mxGeometry>
        </mxCell>
        <mxCell id="In-exWz_-cnZ1oBUNG91-22" value="&lt;span style=&quot;font-size: 12px ; background-color: rgb(248 , 249 , 250)&quot;&gt;not annotated images&lt;/span&gt;" style="edgeLabel;html=1;align=center;verticalAlign=middle;resizable=0;points=[];" vertex="1" connectable="0" parent="In-exWz_-cnZ1oBUNG91-7">
          <mxGeometry x="-0.5344" y="3" relative="1" as="geometry">
            <mxPoint as="offset" />
          </mxGeometry>
        </mxCell>
        <mxCell id="In-exWz_-cnZ1oBUNG91-14" value="&lt;span style=&quot;color: rgb(0 , 0 , 0)&quot;&gt;Capture a video&lt;/span&gt;" style="outlineConnect=0;fontColor=#232F3E;gradientColor=none;fillColor=#232F3E;strokeColor=none;dashed=0;verticalLabelPosition=bottom;verticalAlign=top;align=center;html=1;fontSize=12;fontStyle=0;aspect=fixed;pointerEvents=1;shape=mxgraph.aws4.mobile_client;" vertex="1" parent="1">
          <mxGeometry x="280" y="478.3" width="41" height="78" as="geometry" />
        </mxCell>
        <mxCell id="In-exWz_-cnZ1oBUNG91-18" value="workstation" style="outlineConnect=0;fontColor=#232F3E;gradientColor=none;fillColor=#232F3E;strokeColor=none;dashed=0;verticalLabelPosition=bottom;verticalAlign=top;align=center;html=1;fontSize=12;fontStyle=0;aspect=fixed;pointerEvents=1;shape=mxgraph.aws4.client;" vertex="1" parent="1">
          <mxGeometry x="840" y="540" width="78" height="76" as="geometry" />
        </mxCell>
        <mxCell id="In-exWz_-cnZ1oBUNG91-29" value="" style="outlineConnect=0;fontColor=#232F3E;gradientColor=none;fillColor=#232F3E;strokeColor=none;dashed=0;verticalLabelPosition=bottom;verticalAlign=top;align=center;html=1;fontSize=12;fontStyle=0;aspect=fixed;pointerEvents=1;shape=mxgraph.aws4.multimedia;" vertex="1" parent="1">
          <mxGeometry x="370" y="478.3" width="32.74" height="30.64" as="geometry" />
        </mxCell>
        <mxCell id="In-exWz_-cnZ1oBUNG91-3" value="" style="edgeStyle=orthogonalEdgeStyle;rounded=0;orthogonalLoop=1;jettySize=auto;html=1;" edge="1" parent="1" source="In-exWz_-cnZ1oBUNG91-14" target="In-exWz_-cnZ1oBUNG91-39">
          <mxGeometry relative="1" as="geometry">
            <mxPoint x="410" y="230" as="sourcePoint" />
            <mxPoint x="481.7391304347825" y="516.0999999999999" as="targetPoint" />
          </mxGeometry>
        </mxCell>
        <mxCell id="In-exWz_-cnZ1oBUNG91-30" value="a toy video" style="edgeLabel;html=1;align=center;verticalAlign=middle;resizable=0;points=[];" vertex="1" connectable="0" parent="In-exWz_-cnZ1oBUNG91-3">
          <mxGeometry x="0.33" y="3" relative="1" as="geometry">
            <mxPoint as="offset" />
          </mxGeometry>
        </mxCell>
        <mxCell id="In-exWz_-cnZ1oBUNG91-26" value="" style="edgeStyle=orthogonalEdgeStyle;rounded=0;orthogonalLoop=1;jettySize=auto;html=1;" edge="1" parent="1" source="In-exWz_-cnZ1oBUNG91-18" target="In-exWz_-cnZ1oBUNG91-33">
          <mxGeometry relative="1" as="geometry" />
        </mxCell>
        <mxCell id="In-exWz_-cnZ1oBUNG91-27" value="&lt;font color=&quot;#232f3e&quot;&gt;&lt;span style=&quot;font-size: 12px ; background-color: rgb(248 , 249 , 250)&quot;&gt;annotated images&lt;/span&gt;&lt;/font&gt;" style="edgeLabel;html=1;align=center;verticalAlign=middle;resizable=0;points=[];" vertex="1" connectable="0" parent="In-exWz_-cnZ1oBUNG91-26">
          <mxGeometry x="-0.1447" relative="1" as="geometry">
            <mxPoint as="offset" />
          </mxGeometry>
        </mxCell>
        <mxCell id="In-exWz_-cnZ1oBUNG91-46" value="Detect toy" style="outlineConnect=0;fontColor=#232F3E;gradientColor=none;strokeColor=#232F3E;fillColor=#ffffff;dashed=0;verticalLabelPosition=bottom;verticalAlign=top;align=center;html=1;fontSize=12;fontStyle=0;aspect=fixed;shape=mxgraph.aws4.resourceIcon;resIcon=mxgraph.aws4.camera;" vertex="1" parent="1">
          <mxGeometry x="400" y="616" width="60" height="60" as="geometry" />
        </mxCell>
      </root>
    </mxGraphModel>
  </diagram>
</mxfile>
